<svg xmlns="http://www.w3.org/2000/svg" width="256" xmlns:xlink="http://www.w3.org/1999/xlink" version="1.1" id="Слой_1" x="0px" y="0px" viewBox="0 0 990.1 275.1" style="enable-background:new 0 0 990.1 275.1;" xml:space="preserve">
    <style type="text/css">
        .st0{fill:#000B52;}
        .st1{fill:#00B0F0;}
        .st2{fill:#000077;}
    </style>
    <g>
        <g>
            <path class="st0" d="M224.5,86.8V20.6h44.8v10.1h-32.7v56h-12.1V86.8z"/>
            <path class="st0" d="M289.8,88c-2.6,0-4.9-0.5-7-1.4s-3.8-2.1-5.2-3.5h-0.2c0,0.7,0.1,1.6,0.1,2.8c0,1.2,0,2.5,0,3.9v19.9h-11.7    V38.9h10.3l0.5,5.4h0.2c1.4-1.9,3.3-3.5,5.6-4.7c2.3-1.2,4.9-1.9,7.9-1.9c2.6,0,5.2,0.5,7.7,1.5s4.8,2.5,6.7,4.5    c1.9,2,3.5,4.5,4.7,7.6s1.8,6.7,1.8,10.9c0,4.4-0.6,8.3-1.9,11.5s-2.9,5.9-4.9,8.1c-2,2.1-4.3,3.7-6.8,4.7    C295,87.5,292.4,88,289.8,88z M288.3,47.1c-2,0-4,0.5-5.8,1.5s-3.5,2.3-4.9,3.9v21.4c0.5,0.6,1.1,1.1,1.8,1.7s1.5,1.1,2.3,1.5    c0.9,0.5,1.8,0.8,2.8,1.1c1,0.3,2.1,0.4,3.2,0.4c1.8,0,3.4-0.4,4.8-1.2c1.4-0.8,2.6-1.9,3.5-3.3s1.7-3.1,2.2-5.1s0.7-4.1,0.7-6.5    c0-2.6-0.3-4.8-0.8-6.8c-0.5-1.9-1.2-3.6-2.2-4.8c-0.9-1.3-2.1-2.3-3.4-2.9C291.3,47.4,289.9,47.1,288.3,47.1z"/>
            <path class="st0" d="M315.5,38.9h12.6l7.2,17.3c2.7,6.6,4.6,11.5,5.7,14.6h0.2c0.8-2.5,2.6-7.1,5.2-13.7l7.4-18.2h12.7l-30.8,70.9    h-11.6l11-25.7L315.5,38.9z"/>
            <path class="st0" d="M385.2,48.9v37.9h-11.7V38.9h41.8v47.9h-11.7V48.9H385.2z"/>
            <path class="st0" d="M439.9,48.9v37.9h-11.7V38.9H470v47.9h-11.7V48.9H439.9z"/>
            <path class="st0" d="M511,81.7h-0.2c-0.7,0.7-1.4,1.4-2.4,2.1c-0.9,0.7-2,1.4-3.2,2.1c-1.2,0.6-2.5,1.2-4,1.6s-3,0.6-4.7,0.6    c-2.3,0-4.4-0.4-6.4-1.1s-3.7-1.7-5.1-3.1c-1.4-1.3-2.5-2.9-3.3-4.8s-1.2-4-1.2-6.4c0-2.6,0.5-4.9,1.4-6.9s2.2-3.8,3.9-5.2    c1.7-1.4,3.7-2.5,6-3.2s4.9-1.1,7.8-1.1c2.1,0,4,0.1,5.7,0.4c1.8,0.3,3.3,0.6,4.6,0.9v-1.9c0-1.1-0.2-2.2-0.6-3.2s-1-2-1.8-2.8    s-1.9-1.4-3.3-1.9s-3-0.7-4.9-0.7c-2.4,0-4.7,0.3-7.1,0.8s-4.9,1.3-7.7,2.4V41c2.4-1.1,5-1.9,7.7-2.4c2.7-0.6,5.5-0.9,8.5-0.9    c3.5,0,6.6,0.4,9.2,1.3c2.6,0.9,4.8,2,6.6,3.5s3.1,3.3,4,5.3s1.3,4.3,1.3,6.7v18c0,3.2,0,5.9,0.1,8.2c0.1,2.3,0.1,4.3,0.2,6.1    h-10.6L511,81.7z M510,66.3c-1.1-0.3-2.4-0.5-3.9-0.7c-1.4-0.2-2.9-0.3-4.4-0.3c-2.9,0-5.1,0.6-6.8,1.7c-1.7,1.1-2.5,2.9-2.5,5.2    c0,1.1,0.2,2,0.6,2.8s0.9,1.5,1.5,2s1.4,0.9,2.3,1.2c0.9,0.3,1.8,0.4,2.7,0.4c1.2,0,2.3-0.2,3.4-0.5s2-0.7,2.9-1.2s1.7-1,2.4-1.6    c0.7-0.6,1.3-1.2,1.8-1.7V66.3z"/>
            <path class="st0" d="M555.7,38.9h11.7v20.8h0.2l16.5-20.8h14l-19.6,23.6l20.6,24.3H585l-17.5-20.9h-0.2v20.9h-11.7L555.7,38.9    L555.7,38.9z"/>
            <path class="st0" d="M649.7,62.8c0,3.8-0.6,7.2-1.7,10.3c-1.1,3.1-2.7,5.7-4.8,8c-2.1,2.2-4.6,3.9-7.6,5.1s-6.3,1.8-9.9,1.8    c-3.8,0-7.1-0.6-10.1-1.8c-3-1.2-5.5-2.9-7.6-5.1s-3.7-4.9-4.8-8s-1.7-6.5-1.7-10.3s0.6-7.2,1.7-10.3s2.7-5.7,4.8-8    c2.1-2.2,4.6-3.9,7.6-5.1c3-1.2,6.3-1.8,9.9-1.8c3.8,0,7.1,0.6,10.1,1.8s5.5,2.9,7.6,5.1c2.1,2.2,3.7,4.9,4.8,8    C649.1,55.7,649.7,59.1,649.7,62.8z M637.5,62.8c0-2.5-0.3-4.8-0.9-6.7c-0.6-1.9-1.4-3.6-2.5-4.9s-2.3-2.3-3.8-3s-3.1-1-4.8-1    s-3.3,0.3-4.8,1s-2.7,1.6-3.8,3s-1.9,2.9-2.5,4.9c-0.6,1.9-0.9,4.2-0.9,6.7c0,2.5,0.3,4.8,0.9,6.7c0.6,1.9,1.4,3.6,2.5,4.9    s2.3,2.3,3.8,3s3.1,1,4.8,1s3.3-0.3,4.8-1c1.4-0.7,2.7-1.7,3.8-3s1.9-2.9,2.5-4.9C637.3,67.6,637.5,65.4,637.5,62.8z"/>
            <path class="st0" d="M686.9,70.9c1.9-6.7,4.2-14.2,7.1-22.5l3.3-9.5h16.2v47.9h-11.3V69.6c0-4.2,0.2-10,0.6-17.4h-0.4    c-1,3-2.2,6.7-3.7,11s-3.3,9.4-5.3,15.2l-3,8.5H683l-3-8.5c-2-5.7-3.8-10.8-5.3-15c-1.5-4.3-2.7-8-3.7-11.1h-0.4    c0.4,7,0.6,12.8,0.6,17.4v17.2H660v-48h16.2l3.3,9.5c3.1,9,5.4,16.5,7.1,22.5H686.9z"/>
            <path class="st0" d="M738,48.9v37.9h-11.7V38.9h41.8v47.9h-11.7V48.9H738z"/>
            <path class="st0" d="M809.1,81.7L809.1,81.7c-0.8,0.7-1.5,1.4-2.5,2.1c-0.9,0.7-2,1.4-3.2,2.1c-1.2,0.6-2.5,1.2-4,1.6    s-3,0.6-4.7,0.6c-2.3,0-4.4-0.4-6.4-1.1s-3.7-1.7-5.1-3.1c-1.4-1.3-2.5-2.9-3.3-4.8s-1.2-4-1.2-6.4c0-2.6,0.5-4.9,1.4-6.9    s2.2-3.8,3.9-5.2s3.7-2.5,6-3.2s4.9-1.1,7.8-1.1c2.1,0,4,0.1,5.7,0.4c1.7,0.3,3.3,0.6,4.6,0.9v-1.9c0-1.1-0.2-2.2-0.6-3.2    c-0.4-1-1-2-1.8-2.8s-1.9-1.4-3.3-1.9c-1.4-0.5-3-0.7-4.9-0.7c-2.4,0-4.7,0.3-7.1,0.8c-2.4,0.5-4.9,1.3-7.7,2.4V41    c2.4-1.1,5-1.9,7.7-2.4c2.7-0.6,5.5-0.9,8.5-0.9c3.5,0,6.6,0.4,9.2,1.3c2.6,0.9,4.8,2,6.6,3.5s3.1,3.3,4,5.3s1.3,4.3,1.3,6.7v18    c0,3.2,0,5.9,0.1,8.2c0.1,2.3,0.1,4.3,0.2,6.1h-10.6L809.1,81.7z M808.2,66.3c-1.1-0.3-2.4-0.5-3.9-0.7s-2.9-0.3-4.4-0.3    c-2.9,0-5.1,0.6-6.8,1.7s-2.5,2.9-2.5,5.2c0,1.1,0.2,2,0.6,2.8c0.4,0.8,0.9,1.5,1.5,2s1.4,0.9,2.2,1.2s1.8,0.4,2.7,0.4    c1.2,0,2.3-0.2,3.4-0.5c1.1-0.3,2-0.7,2.9-1.2s1.7-1,2.4-1.6s1.3-1.2,1.8-1.7L808.2,66.3L808.2,66.3z"/>
            <path class="st0" d="M864.1,86.8V67h-19.3v19.8h-11.7V38.9h11.7v18.2h19.3V38.9h11.7v47.9H864.1z"/>
            <path class="st0" d="M933,38.9v47.9h-11.7V72.9c0-6.3,0.2-12,0.4-17.1h-0.2c-2,3.5-5.1,8-9.2,13.6l-12.9,17.3h-10.8V38.9h11.7    v13.9c0,6.9-0.2,12.5-0.4,17.1h0.2c1.9-3.3,5-7.8,9.2-13.6L922.2,39H933V38.9z"/>
            <path class="st0" d="M990.1,38.9v47.9h-11.7V72.9c0-6.3,0.2-12,0.4-17.1h-0.2c-2,3.5-5.1,8-9.2,13.6l-12.9,17.3h-10.8V38.9h11.7    v13.9c0,6.9-0.2,12.5-0.4,17.1h0.2c1.9-3.3,5-7.8,9.2-13.6L979.3,39h10.8V38.9z M968.5,24.7c1.9,0,3.5-0.8,4.7-2.3    s1.9-3.8,2.1-6.7h10.9c-0.1,2.5-0.6,4.9-1.4,7c-0.9,2.2-2,4-3.6,5.6c-1.5,1.6-3.3,2.8-5.5,3.7c-2.1,0.9-4.6,1.3-7.3,1.3    s-5.1-0.4-7.2-1.3c-2.1-0.9-3.9-2.1-5.4-3.7s-2.6-3.4-3.4-5.6c-0.8-2.2-1.3-4.5-1.4-7h10.8c0.3,2.9,1,5.1,2.1,6.7    C965,24,966.5,24.7,968.5,24.7z"/>
        </g>
        <g>
            <path class="st1" d="M360.4,126.6h21.2v110.2h-20.2v-50.7c0-6.3,0.3-16.5,1-30.6h-0.3c-3.8,6.4-10.4,16.3-19.8,29.7l-35.9,51.6    h-21.2V126.6h20.2v50.7c0,8.1-0.3,18.2-1,30.5h0.3c3.5-5.8,10-15.5,19.4-29.2L360.4,126.6z"/>
            <path class="st1" d="M457.2,236.8v-32.9H425v32.9h-19.5V157H425v30.3h32.2V157h19.5v79.8H457.2z"/>
            <path class="st1" d="M514.5,173.5H489V157h70.4v16.5h-25.5v63.3h-19.5L514.5,173.5L514.5,173.5z"/>
            <path class="st1" d="M613,223.1c3.8,0,7.7-0.4,11.9-1.2c4.1-0.8,8.3-1.9,12.5-3.3v15.6c-2.5,1.1-6.4,2.1-11.6,3.1    c-5.2,1-10.6,1.5-16.2,1.5c-5.7,0-11-0.7-16.1-2.2s-9.5-3.8-13.3-7s-6.8-7.4-9-12.6c-2.2-5.2-3.3-11.4-3.3-18.8    c0-7.2,1-13.6,3.1-19s4.9-9.9,8.4-13.5s7.5-6.2,12.1-8c4.5-1.8,9.2-2.7,14-2.7c5.1,0,9.7,0.8,14,2.3s7.9,4,11,7.2    c3.1,3.3,5.5,7.5,7.2,12.7s2.6,11.3,2.6,18.4c-0.1,2.7-0.1,5.1-0.2,7h-52.3c0.3,3.7,1.1,6.8,2.5,9.4c1.4,2.6,3.2,4.7,5.4,6.3    s4.8,2.8,7.8,3.5C606.3,222.8,609.5,223.1,613,223.1z M605.1,170.3c-2.5,0-4.7,0.5-6.6,1.4c-1.9,0.9-3.6,2.1-5,3.7    c-1.4,1.6-2.5,3.4-3.3,5.5s-1.4,4.3-1.6,6.7H620c0-2.4-0.3-4.6-0.9-6.7c-0.6-2.1-1.6-3.9-2.8-5.5s-2.8-2.8-4.6-3.7    C609.8,170.7,607.6,170.3,605.1,170.3z"/>
            <path class="st1" d="M714.9,173.9h-37v62.9h-19.5V157h56.5V173.9z"/>
            <path class="st1" d="M767.2,238.9c-4.3,0-8.2-0.8-11.7-2.3c-3.5-1.6-6.4-3.5-8.7-5.8h-0.3c0.1,1.1,0.1,2.7,0.2,4.7    c0.1,2,0.1,4.2,0.1,6.5v33.2h-19.5V157h17.1l0.8,9h0.3c2.4-3.2,5.5-5.8,9.3-7.9c3.8-2.1,8.2-3.1,13.2-3.1c4.3,0,8.6,0.8,12.8,2.4    c4.2,1.6,7.9,4.1,11.2,7.5c3.2,3.4,5.8,7.6,7.8,12.7c1.9,5.1,2.9,11.2,2.9,18.2c0,7.4-1,13.8-3.1,19.2s-4.8,9.9-8.2,13.4    s-7.2,6.2-11.3,7.9C775.8,238,771.6,238.9,767.2,238.9z M764.6,170.7c-3.4,0.1-6.6,0.9-9.7,2.5c-3.1,1.6-5.8,3.8-8.2,6.5v35.6    c0.8,0.9,1.8,1.9,3,2.8c1.2,0.9,2.4,1.8,3.9,2.6c1.4,0.8,3,1.4,4.7,1.9s3.5,0.7,5.4,0.7c3,0,5.7-0.6,8.1-1.9    c2.4-1.3,4.3-3.1,5.9-5.5c1.6-2.4,2.8-5.2,3.6-8.4c0.8-3.3,1.2-6.9,1.2-10.9c0-4.3-0.4-8-1.3-11.3c-0.9-3.2-2.1-5.9-3.6-8.1    c-1.6-2.1-3.4-3.8-5.6-4.9C769.8,171.2,767.3,170.7,764.6,170.7z"/>
            <path class="st1" d="M810.1,157H831l11.9,28.9c4.5,11,7.7,19.1,9.6,24.4h0.3c1.4-4.1,4.3-11.7,8.7-22.9l12.4-30.4h21.2    l-51.4,118.1h-19.3l18.3-42.8L810.1,157z"/>
            <path class="st1" d="M964.1,235.1c-2.5,1-5.5,1.9-9.1,2.7c-3.6,0.7-7.3,1.1-11.3,1.1c-5.8,0-11.2-0.8-16.1-2.5    c-5-1.6-9.4-4.1-13.1-7.5c-3.7-3.3-6.7-7.6-8.8-12.7c-2.1-5.1-3.2-11.1-3.2-18c0-7.7,1.2-14.3,3.7-19.8s5.7-10,9.6-13.4    c3.9-3.4,8.3-6,13.3-7.6c4.9-1.6,9.8-2.4,14.5-2.4c3.6,0,7,0.3,10.3,1c3.3,0.6,6.3,1.5,9,2.6v15.9c-2.4-1-5-1.9-7.7-2.5    s-5.6-0.9-8.8-0.9c-3.1,0-6.1,0.5-9,1.4c-2.9,1-5.4,2.5-7.6,4.6c-2.2,2.1-3.9,4.8-5.2,8.3c-1.3,3.4-1.9,7.6-1.9,12.4    c0,3.5,0.5,6.8,1.5,9.9c1,3.1,2.4,5.8,4.3,8c1.9,2.2,4.3,4,7.2,5.3s6.4,2,10.4,2c3.6,0,6.8-0.4,9.7-1.1c2.9-0.7,5.7-1.6,8.2-2.6    L964.1,235.1L964.1,235.1z"/>
        </g>
        <polygon class="st2" points="0,216.3 0,120.5 192.5,0 192.5,269.6 105.7,269.6 105.7,153.9  "/>
    </g>
</svg>